<svg width="121" height="27" viewBox="0 0 121 27" fill="none" xmlns="http://www.w3.org/2000/svg">
<path d="M8.12 16.738L12.922 1.996H16.072L9.814 20H6.678L0.504 1.996H3.682L8.428 16.738H8.12ZM20.9803 3.802C20.3923 3.802 19.9303 3.64333 19.5943 3.326C19.2583 2.99933 19.0903 2.56067 19.0903 2.01C19.0903 1.46867 19.2583 1.03933 19.5943 0.721999C19.9303 0.404666 20.3923 0.246 20.9803 0.246C21.559 0.246 22.0163 0.404666 22.3523 0.721999C22.6883 1.03933 22.8563 1.46867 22.8563 2.01C22.8563 2.56067 22.6883 2.99933 22.3523 3.326C22.0163 3.64333 21.559 3.802 20.9803 3.802ZM19.4823 20V6.42H22.4783V20H19.4823ZM34.8917 20.378C34.0331 20.378 33.2491 20.1447 32.5397 19.678C31.8304 19.202 31.2657 18.4973 30.8457 17.564C30.4257 16.6213 30.2157 15.4547 30.2157 14.064H31.1677C31.1677 14.8013 31.3311 15.4407 31.6577 15.982C31.9844 16.514 32.3997 16.9293 32.9037 17.228C33.4077 17.5173 33.9351 17.662 34.4857 17.662C35.1577 17.662 35.7551 17.48 36.2777 17.116C36.8097 16.7427 37.2297 16.22 37.5377 15.548C37.8551 14.876 38.0137 14.0827 38.0137 13.168C38.0137 12.2813 37.8597 11.5113 37.5517 10.858C37.2437 10.1953 36.8237 9.68667 36.2917 9.332C35.7597 8.968 35.1484 8.786 34.4577 8.786C33.8884 8.786 33.3517 8.926 32.8477 9.206C32.3437 9.47667 31.9377 9.878 31.6297 10.41C31.3217 10.942 31.1677 11.586 31.1677 12.342H30.2157C30.2157 10.998 30.4164 9.864 30.8177 8.94C31.2191 8.00667 31.7837 7.302 32.5117 6.826C33.2491 6.34067 34.1171 6.098 35.1157 6.098C36.2077 6.098 37.2017 6.38733 38.0977 6.966C38.9937 7.54467 39.7077 8.366 40.2397 9.43C40.7717 10.4847 41.0377 11.7307 41.0377 13.168C41.0377 14.624 40.7624 15.8933 40.2117 16.976C39.6611 18.0493 38.9191 18.8847 37.9857 19.482C37.0617 20.0793 36.0304 20.378 34.8917 20.378ZM28.1717 20V0.819998H31.1677V16.696L30.1597 20H28.1717ZM50.1629 20.378C49.0055 20.378 47.9509 20.0793 46.9989 19.482C46.0562 18.8847 45.3002 18.0493 44.7309 16.976C44.1709 15.9027 43.8909 14.6567 43.8909 13.238C43.8909 11.7447 44.1709 10.466 44.7309 9.402C45.2909 8.338 46.0422 7.52133 46.9849 6.952C47.9369 6.38267 48.9962 6.098 50.1629 6.098C51.2362 6.098 52.1555 6.31267 52.9209 6.742C53.6862 7.17133 54.3022 7.75 54.7689 8.478C55.2449 9.206 55.5669 10.032 55.7349 10.956C55.9029 11.8707 55.9215 12.818 55.7909 13.798H46.2849V12.132H53.7049L53.0609 12.552C53.0889 12.076 53.0655 11.6 52.9909 11.124C52.9162 10.648 52.7715 10.214 52.5569 9.822C52.3515 9.42067 52.0575 9.09867 51.6749 8.856C51.2922 8.61333 50.8069 8.492 50.2189 8.492C49.4909 8.492 48.8749 8.674 48.3709 9.038C47.8762 9.402 47.5029 9.892 47.2509 10.508C46.9989 11.124 46.8729 11.81 46.8729 12.566V13.77C46.8729 14.582 46.9942 15.3007 47.2369 15.926C47.4795 16.5513 47.8435 17.046 48.3289 17.41C48.8142 17.774 49.4255 17.956 50.1629 17.956C50.8722 17.956 51.4602 17.7927 51.9269 17.466C52.4029 17.13 52.7015 16.6307 52.8229 15.968H55.8609C55.7209 16.8453 55.3942 17.6153 54.8809 18.278C54.3675 18.9407 53.7095 19.4587 52.9069 19.832C52.1042 20.196 51.1895 20.378 50.1629 20.378ZM64.9158 20.378C63.6185 20.378 62.5078 20.196 61.5838 19.832C60.6691 19.468 59.9645 18.9547 59.4698 18.292C58.9845 17.62 58.7371 16.822 58.7278 15.898H61.5138C61.5511 16.6167 61.8405 17.1487 62.3818 17.494C62.9231 17.83 63.6558 17.998 64.5798 17.998C65.0838 17.998 65.5365 17.9233 65.9378 17.774C66.3391 17.6153 66.6518 17.4053 66.8758 17.144C67.1091 16.8733 67.2258 16.5747 67.2258 16.248C67.2258 15.828 67.0718 15.4967 66.7638 15.254C66.4651 15.0113 65.9798 14.792 65.3078 14.596L62.4378 13.602C61.3551 13.2287 60.5245 12.7293 59.9458 12.104C59.3671 11.4787 59.0778 10.732 59.0778 9.864C59.0778 8.73467 59.5865 7.82467 60.6038 7.134C61.6211 6.44333 62.9745 6.098 64.6638 6.098C66.3811 6.098 67.7065 6.46667 68.6398 7.204C69.5731 7.94133 70.0538 8.87 70.0818 9.99H67.2398C67.1838 9.50467 66.9458 9.12667 66.5258 8.856C66.1058 8.576 65.4851 8.436 64.6638 8.436C63.9078 8.436 63.3151 8.59933 62.8858 8.926C62.4658 9.24333 62.2558 9.60733 62.2558 10.018C62.2558 10.7367 62.8718 11.2733 64.1038 11.628L67.1698 12.748C68.2431 13.1027 69.0738 13.56 69.6618 14.12C70.2498 14.68 70.5438 15.3893 70.5438 16.248C70.5438 16.9573 70.3058 17.6293 69.8298 18.264C69.3631 18.8893 68.7098 19.398 67.8698 19.79C67.0298 20.182 66.0451 20.378 64.9158 20.378ZM84.0634 20V12.076C84.0634 10.9933 83.8021 10.1767 83.2794 9.626C82.7661 9.066 82.0801 8.786 81.2214 8.786C80.5214 8.786 79.9054 8.97733 79.3734 9.36C78.8414 9.74267 78.4261 10.312 78.1274 11.068C77.8288 11.824 77.6794 12.7527 77.6794 13.854H76.6574C76.6574 12.146 76.8721 10.718 77.3014 9.57C77.7401 8.422 78.3561 7.55867 79.1494 6.98C79.9521 6.392 80.8994 6.098 81.9914 6.098C83.0928 6.098 84.0168 6.34533 84.7634 6.84C85.5194 7.33467 86.0888 8.03 86.4714 8.926C86.8634 9.822 87.0594 10.872 87.0594 12.076V20H84.0634ZM74.6834 20V6.476H77.3014L77.6794 9.276V20H74.6834ZM100.519 20L100.141 16.794V11.264C100.141 10.2373 99.9307 9.486 99.5107 9.01C99.0907 8.534 98.4047 8.296 97.4527 8.296C96.902 8.296 96.4214 8.37533 96.0107 8.534C95.6 8.69267 95.278 8.93067 95.0447 9.248C94.8207 9.556 94.7087 9.93867 94.7087 10.396H91.4187C91.4187 9.37867 91.6614 8.55733 92.1467 7.932C92.6414 7.29733 93.3367 6.83533 94.2327 6.546C95.138 6.24733 96.2114 6.098 97.4527 6.098C98.582 6.098 99.5714 6.28467 100.421 6.658C101.279 7.022 101.947 7.59133 102.423 8.366C102.899 9.14067 103.137 10.1393 103.137 11.362V20H100.519ZM96.0387 20.378C94.8907 20.378 93.934 20.1773 93.1687 19.776C92.4127 19.3747 91.8434 18.8473 91.4607 18.194C91.078 17.5407 90.8867 16.836 90.8867 16.08C90.8867 15.212 91.1107 14.4887 91.5587 13.91C92.016 13.3313 92.6507 12.902 93.4627 12.622C94.284 12.3327 95.2407 12.188 96.3327 12.188C97.0607 12.188 97.756 12.2487 98.4187 12.37C99.0907 12.482 99.758 12.6407 100.421 12.846V14.624C99.8887 14.4373 99.3054 14.2927 98.6707 14.19C98.0454 14.0873 97.4574 14.036 96.9067 14.036C96.0947 14.036 95.418 14.1947 94.8767 14.512C94.3447 14.82 94.0787 15.3427 94.0787 16.08C94.0787 16.6307 94.2934 17.102 94.7227 17.494C95.152 17.886 95.8334 18.082 96.7667 18.082C97.4574 18.082 98.0547 17.928 98.5587 17.62C99.0627 17.3027 99.45 16.9107 99.7207 16.444C100.001 15.9773 100.141 15.5153 100.141 15.058H100.855C100.855 16.01 100.668 16.892 100.295 17.704C99.9307 18.5067 99.3894 19.1553 98.6707 19.65C97.9614 20.1353 97.084 20.378 96.0387 20.378ZM114.678 20.378C113.689 20.378 112.839 20.1633 112.13 19.734C111.421 19.2953 110.879 18.642 110.506 17.774C110.133 16.906 109.946 15.8233 109.946 14.526H111.066C111.066 15.1887 111.215 15.7533 111.514 16.22C111.813 16.6867 112.205 17.046 112.69 17.298C113.185 17.5407 113.707 17.662 114.258 17.662C114.846 17.662 115.42 17.4987 115.98 17.172C116.54 16.8453 117.002 16.3553 117.366 15.702C117.73 15.0393 117.912 14.2133 117.912 13.224C117.912 12.3 117.753 11.5067 117.436 10.844C117.119 10.1813 116.689 9.67267 116.148 9.318C115.607 8.96333 114.995 8.786 114.314 8.786C113.735 8.786 113.199 8.92133 112.704 9.192C112.209 9.45333 111.813 9.84067 111.514 10.354C111.215 10.858 111.066 11.4787 111.066 12.216H109.946C109.946 10.8253 110.165 9.67733 110.604 8.772C111.043 7.86667 111.631 7.19467 112.368 6.756C113.105 6.31733 113.913 6.098 114.79 6.098C115.863 6.098 116.867 6.38267 117.8 6.952C118.733 7.512 119.489 8.324 120.068 9.388C120.647 10.452 120.936 11.7307 120.936 13.224C120.936 14.7267 120.642 16.01 120.054 17.074C119.475 18.138 118.705 18.9547 117.744 19.524C116.792 20.0933 115.77 20.378 114.678 20.378ZM108.07 26.622V6.476H110.548L111.066 9.766V26.622H108.07Z" fill="black"/>
</svg>
